<?xml version="1.0" encoding="iso-8859-1"?>
<!-- Uploaded to: SVG Repo, www.svgrepo.com, Transformed by: SVG Repo Mixer Tools -->
<svg fill="#000000" height="800px" width="800px" version="1.1" id="Capa_1" xmlns="http://www.w3.org/2000/svg" xmlns:xlink="http://www.w3.org/1999/xlink" 
	 viewBox="0 0 248.383 248.383" xml:space="preserve">
<g>
	<path d="M229.25,58.458c2.222-5.103,3.462-10.728,3.462-16.639C232.712,18.76,213.953,0,190.894,0
		c-9.037,0-17.407,2.891-24.253,7.783c-13.249-4.843-27.545-7.491-42.45-7.491C55.792,0.292,0.146,55.938,0.146,124.338
		c0,68.398,55.646,124.045,124.045,124.045c68.399,0,124.046-55.646,124.046-124.045C248.237,100.149,241.273,77.559,229.25,58.458z
		 M202.712,41.818c0,6.518-5.302,11.819-11.818,11.819s-11.818-5.302-11.818-11.819c0-6.517,5.302-11.818,11.818-11.818
		S202.712,35.302,202.712,41.818z M124.191,218.383c-51.856,0-94.045-42.188-94.045-94.045c0-51.857,42.188-94.046,94.045-94.046
		c8.891,0,17.497,1.244,25.655,3.562c-0.5,2.58-0.77,5.24-0.77,7.964c0,23.06,18.76,41.819,41.818,41.819
		c5.805,0,11.337-1.191,16.366-3.339c7,13.146,10.977,28.135,10.977,44.039C218.237,176.194,176.048,218.383,124.191,218.383z"/>
	<path d="M123.799,70.174c-27.57,0-50.41,20.584-53.995,47.188c-10.369,7.448-17.141,19.6-17.141,33.312c0,22.607,18.393,41,41,41
		c11.55,0,21.992-4.808,29.451-12.518c0.229,0.003,0.455,0.017,0.685,0.017c30.052,0,54.5-24.448,54.5-54.499
		C178.299,94.622,153.851,70.174,123.799,70.174z M93.664,161.674c-6.065,0-11-4.935-11-11s4.935-11,11-11s11,4.935,11,11
		S99.729,161.674,93.664,161.674z M134.469,146.724c-1.675-17.432-14.308-31.704-30.911-35.835
		c4.415-6.463,11.84-10.715,20.24-10.715c13.51,0,24.5,10.99,24.5,24.5C148.299,134.36,142.648,142.75,134.469,146.724z"/>
</g>
</svg>