<?xml version="1.0" encoding="utf-8"?>
<!-- Generator: Adobe Illustrator 27.1.1, SVG Export Plug-In . SVG Version: 6.00 Build 0)  -->
<svg version="1.1" id="Layer_1" xmlns="http://www.w3.org/2000/svg" xmlns:xlink="http://www.w3.org/1999/xlink" x="0px" y="0px"
	 viewBox="0 0 800 800" style="enable-background:new 0 0 800 800;" xml:space="preserve">
<g>
	<path d="M390.9,0c-32.2,0-63.8,2.9-94.5,8.3l3.3-0.5c-80.8,14.3-95.4,44.1-95.4,99.2v72.7h190.9V204H132.7c-0.7,0-1.4,0-2.2,0
		c-57.9,0-106.1,41.3-116.9,96l-0.1,0.8C4.9,329.8,0,363.2,0,397.7s4.9,67.9,14.1,99.5l-0.6-2.5c13.6,56.5,46,96.7,101.3,96.7h65.6
		v-87.2c1.5-65.1,54.1-117.4,119.1-118.6h0.1h190.6c52.8-0.4,95.4-43.3,95.4-96.2c0-0.3,0-0.6,0-0.9v0V106.9
		c-3.5-52-43.8-93.7-94.9-99.2l-0.5,0c-28.9-5-62.1-7.8-96-7.8c-1.2,0-2.4,0-3.6,0L390.9,0L390.9,0z M287.7,58.5h0.6
		c20.1,0,36.4,16.3,36.4,36.4s-16.3,36.4-36.4,36.4c-20,0-36.3-16.2-36.4-36.3c0-0.1,0-0.2,0-0.3C251.9,74.8,267.9,58.7,287.7,58.5
		L287.7,58.5L287.7,58.5z"/>
	<path d="M609.6,204v84.7c-0.7,65.9-53.5,119.3-119.1,121h-0.2H299.7c-52.8,1.1-95.2,44.1-95.4,97v181.8c0,51.7,45,82.1,95.4,97
		C328.2,794.7,361,800,395,800s66.8-5.3,97.6-15.2l-2.3,0.6c48-13.9,95.4-41.9,95.4-97v-72.8H395.1v-24.2h286.1
		c55.5,0,76.1-38.7,95.4-96.7c9.3-29,14.7-62.4,14.7-97s-5.4-68-15.3-99.3l0.6,2.3c-13.7-55.2-40-96.7-95.4-96.7H609.6z
		 M502.4,664.2h0.6c20.1,0,36.4,16.3,36.4,36.4s-16.3,36.4-36.4,36.4c-20.1,0-36.4-16.3-36.4-36.4c0,0,0-0.1,0-0.1
		c0-0.1,0-0.2,0-0.2C466.6,680.4,482.6,664.3,502.4,664.2L502.4,664.2z"/>
</g>
</svg>
